<svg fill="#111111" xmlns="http://www.w3.org/2000/svg" xmlns:xlink="http://www.w3.org/1999/xlink" version="1.1" width="2758" height="353" viewBox="248 790 2758 353">
<defs>
<clipPath id="clip_1">
<path transform="matrix(1,0,0,-1,0,1920)" d="M0 1920H3240V0H0Z"/>
</clipPath>
</defs>
<g>
<g clip-path="url(#clip_1)">
<path transform="matrix(1,0,0,-1,626.9888,1136.916)" d="M0 0-50.344 84.521H-209.227L-181.514 132.095H-78.518L-153.34 257.723-305.757 0H-372.728L-179.667 321.46C-172.739 333.007-163.963 340.397-151.031 340.397-138.099 340.397-129.785 333.007-122.857 321.46L70.666 0Z"/>
<path transform="matrix(1,0,0,-1,733.6812,1136.916)" d="M0 0V58.657H251.718C283.125 58.657 300.676 76.208 300.676 102.535 300.676 131.171 283.125 145.95 251.718 145.95H97.454C34.178 145.95-5.081 186.133-5.081 241.557-5.081 295.596 31.407 335.778 98.378 335.778H339.473V277.121H98.378C71.59 277.121 55.886 261.417 55.886 236.015 55.886 210.612 72.051 195.37 97.916 195.37H251.718C319.613 195.37 356.101 163.501 356.101 98.378 356.101 42.03 321.922 0 251.718 0Z"/>
<path transform="matrix(1,0,0,-1,1241.271,1043.6182)" d="M0 0V56.81H134.865C175.972 56.81 200.451 82.674 200.451 120.547 200.451 159.344 175.972 183.823 134.865 183.823H-42.954V-93.298H-101.149V242.48H134.865C212.459 242.48 257.722 195.832 257.722 122.395 257.722 49.881 212.459 0 134.865 0Z"/>
<path transform="matrix(1,0,0,-1,0,1920)" d="M1641.707 978.454H1827.8401V929.034H1641.707ZM1540.558 783.084V1118.862H1840.311V1060.205H1598.753V841.741H1840.771V783.084Z"/>
<path transform="matrix(1,0,0,-1,2044.4512,1136.916)" d="M0 0C-93.76 0-163.039 73.898-163.039 171.354-163.039 270.193-93.76 335.778 0 335.778H181.977V277.121H0C-60.043 277.121-104.383 232.319-104.383 168.582-104.383 105.306-60.504 58.657 0 58.657H181.977V0Z"/>
<path transform="matrix(1,0,0,-1,2381.6134,1136.916)" d="M0 0V277.121H-127.475V335.778H186.133V277.121H58.658V0Z"/>
<path transform="matrix(1,0,0,-1,2761.7266,1136.916)" d="M0 0V127.476L-178.281 335.778H-99.303L31.406 181.053 162.578 335.778H237.4L58.656 127.476V0Z"/>
</g>
</g>
</svg>
