<?xml version="1.0" encoding="UTF-8"?>
<svg id="Layer_1" xmlns="http://www.w3.org/2000/svg" version="1.1" viewBox="0 0 1920 1080">
  <!-- Generator: Adobe Illustrator 30.1.0, SVG Export Plug-In . SVG Version: 2.1.1 Build 136)  -->
  <defs>
    <style>
      .st0 {
        fill: #fff;
      }
    </style>
  </defs>
  <path class="st0" d="M920.14,434.25l-11.31-4-38.42-12.03c-29.73-7.26-55.09-20.87-68.43-39.72-32.07-45.24-.54-113.72,77.93-116.54,67.69-2.43,87.83,30.7,92.23,43.75l20.45-10.5c-11.01-25.58-40.99-60.38-107.29-60.38-53.35,0-85.36,20.85-108.63,52.81-20.56,28.25-19.89,70.82-6.47,97.06,6.62,12.96,17.34,24.08,32.15,33.36,62.56,39.06,178.15,34.62,178.46,124.25.12,38.17-15.7,92.1-95.52,92.1-52.98,0-96.33-29.08-109.53-77.25l-25.39,9.13c4.34,18.98,26.55,51.24,40.28,62.71,23.9,19.96,57.4,30.68,101.87,30.68s64.43-12.78,85.26-32.07c20.81-19.25,30.12-47.5,30.12-82.54,0-18.48,4.31-77.85-87.75-110.79h0l-.02-.02Z"/>
  <polygon class="st0" points="1500.98 656 1532.81 656 1532.81 485.59 1533.28 484.8 1533.49 484.47 1517.7 455.16 1515.71 451.34 1515.17 450.43 1390.98 239.7 1355.05 239.88 1500.98 484.43 1500.98 656"/>
  <polygon class="st0" points="1678.63 240.11 1644.51 239.88 1545.36 408.16 1561.27 437.74 1678.63 240.11"/>
  <polygon class="st0" points="1183.34 480.82 1306.37 656 1343.08 656 1202.94 457.82 1183.34 480.82"/>
  <polygon class="st0" points="1325.76 239.88 1290.38 239.88 1240.98 298.11 1241.05 298.17 1221.65 321.26 1122.29 439.69 1122.29 239.88 1087.71 239.88 1087.71 656 1122.29 656 1122.29 483.37 1261.58 317.11 1325.76 239.88"/>
  <rect class="st0" x="1006.25" y="714.68" width="58.64" height="327.64"/>
  <polygon class="st0" points="1136.73 714.68 1136.73 1042.31 1193.07 1042.31 1194.02 824.62 1386.87 1042.31 1390.59 1042.31 1390.88 962.63 1167.97 714.68 1136.73 714.68"/>
  <polygon class="st0" points="1336.05 846.88 1389.07 907.22 1391.09 907.22 1391.31 714.62 1336.05 714.62 1336.05 846.88"/>
  <polygon class="st0" points="1650.94 761.63 1650.94 714.62 1446.24 714.62 1446.24 951.74 1504.86 951.74 1504.86 901.35 1627.71 901.35 1627.71 854.37 1504.86 854.37 1504.86 761.63 1650.94 761.63"/>
  <polygon class="st0" points="824.06 993.52 824.06 714.68 769.11 714.68 769.11 993.52 769.11 1042.22 953.48 1042.22 954.64 1042.22 954.64 993.52 953.48 993.52 824.06 993.52"/>
  <rect class="st0" x="1446.24" y="995.78" width="209.53" height="46.44"/>
  <path class="st0" d="M820.1,141.17c6.33,3.11,13.82,4.67,22.44,4.67,13.44,0,23.38-3.3,29.83-9.89,6.45-6.6,9.67-16.82,9.67-30.66v-17.38h-40.66v10.79h28.52v8.55c0,5.48-.89,10.31-2.61,14.48-1.74,4.19-4.56,7.43-8.44,9.73-3.88,2.3-9.17,3.44-15.83,3.44-10.16,0-17.67-2.74-22.53-8.19-4.85-5.48-7.3-12.78-7.3-21.88v-33.48c0-9.33,2.43-16.74,7.3-22.22,4.85-5.48,12.16-8.19,21.88-8.19,8.4,0,14.77,1.76,19.1,5.31,4.31,3.53,7.03,8.96,8.11,16.26h12.45c-.97-10.19-4.75-18.15-11.31-23.9-6.55-5.73-15.79-8.61-27.69-8.61-8.73,0-16.3,1.56-22.69,4.67-6.39,3.11-11.37,7.72-14.91,13.84-3.55,6.12-5.33,13.73-5.33,22.86v33.31c0,9,1.74,16.57,5.25,22.69,3.51,6.12,8.4,10.75,14.75,13.84h0v-.02Z"/>
  <path class="st0" d="M923.53,42.53h18.19c6.78,0,12.2.83,16.22,2.51,4.04,1.66,6.95,4,8.69,7.01,1.74,3.01,2.61,6.49,2.61,10.45v5.95c0,5.91-2.22,10.66-6.64,14.23-4.44,3.61-11.35,5.39-20.72,5.39h-18.36v-45.55ZM923.53,99.01h20l28.52,45.22h14.58l-30.33-47.15c8.73-1.83,15.27-5.23,19.58-10.23,4.31-4.98,6.47-11.01,6.47-18.11v-6.6c0-6.53-1.39-12.07-4.17-16.57-2.78-4.5-7.16-7.97-13.11-10.39-5.95-2.43-13.63-3.61-23.03-3.61h-31.3v112.64h12.8v-45.22h0l-.02.02Z"/>
  <path class="st0" d="M1087.92,31.58h-13.11v75.49c0,8.28-2.18,14.98-6.55,20.1-4.38,5.14-11.1,7.72-20.16,7.72s-15.62-2.57-20-7.72c-4.38-5.14-6.55-11.84-6.55-20.1V31.58h-13.11v75.49c0,12.55,3.61,22.15,10.83,28.81,7.22,6.66,16.82,9.98,28.83,9.98s21.8-3.32,29-9.98c7.22-6.66,10.83-16.26,10.83-28.81V31.58h0Z"/>
  <path class="st0" d="M1132.5,42.53h18.19c6.78,0,12.2.83,16.22,2.51,4.05,1.66,6.95,4,8.69,7.01,1.74,3.01,2.61,6.49,2.61,10.45v5.95c0,5.91-2.22,10.66-6.64,14.23-4.44,3.61-11.35,5.39-20.72,5.39h-18.36v-45.55ZM1132.5,99.01h18.86c8.63,0,15.91-1.27,21.88-3.78,5.95-2.51,10.45-6.04,13.52-10.54,3.07-4.5,4.61-9.81,4.61-15.93v-6.6c0-6.53-1.39-12.07-4.17-16.57-2.78-4.5-7.16-7.97-13.11-10.39-5.95-2.43-13.63-3.61-23.03-3.61h-31.3v112.64h12.8v-45.22h-.06Z"/>
  <path class="st0" d="M1225.12,71.32c0-9.33,2.47-16.74,7.38-22.22,4.92-5.48,12.45-8.19,22.61-8.19s17.57,2.74,22.53,8.19c4.98,5.48,7.47,12.82,7.47,22.05v33.31c0,9.33-2.49,16.74-7.47,22.22-4.98,5.48-12.49,8.19-22.53,8.19s-17.69-2.74-22.61-8.19c-4.92-5.48-7.38-12.78-7.38-21.88v-33.48h0ZM1232.23,141.17c6.39,3.11,14,4.67,22.86,4.67s16.35-1.56,22.78-4.67c6.45-3.11,11.43-7.76,14.91-13.92,3.51-6.16,5.25-13.71,5.25-22.61v-33.48c0-9-1.74-16.57-5.25-22.69-3.51-6.12-8.48-10.72-14.91-13.84-6.45-3.11-14.04-4.67-22.78-4.67s-16.47,1.56-22.86,4.67c-6.39,3.11-11.37,7.72-14.91,13.84-3.55,6.12-5.33,13.73-5.33,22.86v33.31c0,9,1.78,16.57,5.33,22.69,3.55,6.12,8.53,10.75,14.91,13.84"/>
  <rect class="st0" x="398.51" y="37.32" width="23.38" height="1014.38"/>
</svg>